PathFileType	4	(X/Y/Z)	E:\Qualisys_Data\Carbon_Farble_Plate\Data\Amateur_Runner\S1\T3\S1T3V11_c3d.trc
DataRate	CameraRate	NumFrames	NumMarkers	Units	OrigDataRate	OrigDataStartFrame	OrigNumFrames
200.000000	200.000000	4	39	mm	200.000000	0	311
Frame#	Time	LSHO			RSHO			LICST			RICST			LASIS			LHEEL			RASIS			LTROC			RTROC			SACR			LTH1			LSK4			LTH2			LTH3			RHM5			LSK2			LTH4			RTH1			LTOE			RTH2			RTH3			RTH4			LLEP			RLEP			LSK1			LSK3			RSK1			LHM5			RSK2			LFT1			RSK3			RSK4			LLME			RLME			RTOE			RHEEL			RFT1			RFT2			LFT2			
		X1	Y1	Z1	X2	Y2	Z2	X3	Y3	Z3	X4	Y4	Z4	X5	Y5	Z5	X6	Y6	Z6	X7	Y7	Z7	X8	Y8	Z8	X9	Y9	Z9	X10	Y10	Z10	X11	Y11	Z11	X12	Y12	Z12	X13	Y13	Z13	X14	Y14	Z14	X15	Y15	Z15	X16	Y16	Z16	X17	Y17	Z17	X18	Y18	Z18	X19	Y19	Z19	X20	Y20	Z20	X21	Y21	Z21	X22	Y22	Z22	X23	Y23	Z23	X24	Y24	Z24	X25	Y25	Z25	X26	Y26	Z26	X27	Y27	Z27	X28	Y28	Z28	X29	Y29	Z29	X30	Y30	Z30	X31	Y31	Z31	X32	Y32	Z32	X33	Y33	Z33	X34	Y34	Z34	X35	Y35	Z35	X36	Y36	Z36	X37	Y37	Z37	X38	Y38	Z38	X39	Y39	Z39	

1	0	-2479.031005859375	1535.736328125	-526.0022583007812	-2555.74365234375	1525.792724609375	-210.2184448242188	-2547.4189453125	1065.332397460938	-514.5875244140625	-2552.9501953125	1086.187255859375	-218.8666076660156	-2506.82373046875	1021.723266601562	-488.9917907714844	-3118.83203125	358.2230834960938	-429.7705383300781	-2516.213623046875	1037.911865234375	-226.9204559326172	-2635.073486328125	959.4872436523438	-530.6925659179688	-2615.814697265625	947.656494140625	-191.9797821044922	-2668.00048828125	1098.935180664062	-364.6139831542969	-2563.76025390625	777.2979125976562	-499.9308471679688	-3001.929931640625	433.5039672851562	-455.0758361816406	-2636.99365234375	797.1450805664062	-532.0508422851562	-2598.610595703125	680.324951171875	-485.775634765625	-2180.967041015625	163.9258728027344	-222.3129730224609	-2918.619384765625	484.6731872558594	-490.6684875488281	-2676.110595703125	705.9424438476562	-510.0218200683594	-2454.778564453125	853.2088623046875	-213.5387268066406	-3028.740234375	125.2321929931641	-402.6763000488281	-2523.6201171875	821.5317993164062	-183.7706756591797	-2416.077392578125	757.363037109375	-218.6583709716797	-2488.383544921875	728.7405395507812	-199.033935546875	-2711.617431640625	554.4805297851562	-477.8135681152344	-2401.584716796875	586.8848266601562	-240.2545623779297	-2874.45654296875	413.8753356933594	-482.1459350585938	-2963.9169921875	365.7249450683594	-478.2940979003906	-2363.09619140625	403.1915893554688	-216.8534088134766	-3079.4306640625	171.3904724121094	-467.0838012695312	-2441.642333984375	384.983642578125	-233.0983428955078	-3139.897705078125	342.8978881835938	-396.0640258789062	-2337.3515625	306.083251953125	-227.5050659179688	-2411.435302734375	289.1617431640625	-254.4288482666016	-3074.525390625	319.532958984375	-471.9093627929688	-2328.5712890625	167.7785949707031	-234.1024627685547	-2138.200439453125	198.9260559082031	-295.2984924316406	-2372.244384765625	100.9085235595703	-275.0368347167969	-2350.138916015625	81.10971069335938	-307.5799560546875	-2356.413818359375	79.990478515625	-255.2460632324219	-3147.400634765625	337.9965209960938	-446.8439025878906
2	0.005	-2462.038818359375	1534.740234375	-524.5149536132812	-2538.6923828125	1523.7080078125	-208.4014892578125	-2530.459228515625	1063.880737304688	-514.1487426757812	-2536.214111328125	1084.639526367188	-218.9638214111328	-2489.848388671875	1021.150512695312	-489.1628112792969	-3103.349853515625	364.4396667480469	-429.1093444824219	-2500.029052734375	1036.34912109375	-226.6703033447266	-2617.565185546875	957.483642578125	-531.7802124023438	-2600.056396484375	945.7431030273438	-192.8899536132812	-2651.745849609375	1097.075439453125	-364.7787780761719	-2544.209716796875	775.4356079101562	-498.8188171386719	-2984.008056640625	437.1051635742188	-454.8489379882812	-2618.080322265625	795.298828125	-531.7623291015625	-2578.31787109375	677.919921875	-485.0042724609375	-2164.13427734375	162.890625	-222.2336730957031	-2899.492431640625	486.3818969726562	-490.6943969726562	-2655.71728515625	702.9097290039062	-509.5459289550781	-2440.459716796875	848.79931640625	-214.0757751464844	-3016.815673828125	130.3749237060547	-401.5599060058594	-2509.220947265625	819.2666625976562	-182.8496704101562	-2401.97900390625	753.1360473632812	-217.0750885009766	-2476.43212890625	725.6036987304688	-196.6114501953125	-2690.449462890625	551.6830444335938	-477.5987548828125	-2385.569580078125	584.305908203125	-240.1914215087891	-2857.22900390625	414.0206298828125	-481.9412536621094	-2948.494873046875	369.7802429199219	-478.0391235351562	-2345.857666015625	401.2621154785156	-217.0890655517578	-3066.702392578125	176.7452087402344	-465.483154296875	-2424.206787109375	382.7173156738281	-232.9470672607422	-3124.3310546875	350.22265625	-396.0204162597656	-2320.322998046875	305.5946044921875	-228.3147888183594	-2394.119384765625	287.75732421875	-254.3358154296875	-3058.843505859375	324.5139770507812	-471.4624328613281	-2310.260009765625	166.4739837646484	-233.6829833984375	-2120.920654296875	197.1993865966797	-295.023193359375	-2355.08544921875	99.50106048583984	-274.3466796875	-2332.814697265625	79.19441223144531	-307.2514953613281	-2338.55322265625	78.01911163330078	-254.3847503662109	-3131.7841796875	344.44287109375	-446.2418212890625
3	0.01	-2444.882568359375	1533.294189453125	-523.0440063476562	-2521.73291015625	1521.168823242188	-207.1326599121094	-2513.6064453125	1062.255004882812	-514.2891845703125	-2519.944091796875	1082.5498046875	-218.4981231689453	-2472.713623046875	1019.915466308594	-488.5854187011719	-3086.415283203125	371.0693054199219	-428.8019714355469	-2483.654052734375	1034.758911132812	-226.5503082275391	-2599.621826171875	955.1525268554688	-532.2426147460938	-2581.99072265625	943.4198608398438	-192.6056518554688	-2635.113037109375	1094.73486328125	-364.9247436523438	-2525.40771484375	773.814208984375	-498.4837951660156	-2966.0029296875	441.4682312011719	-455.4153747558594	-2598.444580078125	792.497314453125	-531.1002197265625	-2557.690673828125	675.873291015625	-483.5874633789062	-2147.643798828125	161.5026092529297	-222.3564758300781	-2879.82373046875	487.7801818847656	-490.54296875	-2634.938232421875	699.5425415039062	-509.1986083984375	-2425.351806640625	844.8137817382812	-214.3772125244141	-3004.680419921875	135.0726623535156	-400.3486022949219	-2493.14990234375	816.9987182617188	-181.8594512939453	-2389.027099609375	749.4710693359375	-218.5134582519531	-2462.77880859375	721.9780883789062	-194.4730377197266	-2669.785400390625	548.1905517578125	-478.0394897460938	-2368.642578125	582.0756225585938	-240.1094055175781	-2839.328125	414.8659362792969	-481.5563354492188	-2931.572021484375	372.4403991699219	-477.7276306152344	-2327.793701171875	399.9108581542969	-218.3625335693359	-3053.780029296875	182.0953826904297	-465.2956237792969	-2406.998779296875	380.4862976074219	-232.3946075439453	-3108.450927734375	357.1548156738281	-395.3276672363281	-2302.109130859375	303.2033996582031	-230.7162628173828	-2376.577392578125	285.1133422851562	-253.4772033691406	-3043.486083984375	329.9637451171875	-471.3190612792969	-2294.009765625	164.7236328125	-234.0962066650391	-2104.053466796875	195.2237548828125	-295.5608215332031	-2338.726806640625	97.15650939941406	-274.3550720214844	-2316.090087890625	76.96713256835938	-307.0162048339844	-2322.68994140625	76.62992858886719	-254.8096923828125	-3116.546142578125	351.8219299316406	-446.8721618652344
4	0.015	-2428.0625	1531.639526367188	-521.5844116210938	-2505.08984375	1518.805053710938	-205.5419311523438	-2496.774658203125	1060.07470703125	-513.7320556640625	-2504.503662109375	1080.498413085938	-219.1031188964844	-2455.699462890625	1018.309509277344	-488.4358520507812	-3069.9970703125	377.519775390625	-429.0077209472656	-2466.842529296875	1033.093872070312	-226.3809814453125	-2582.18701171875	952.3890380859376	-532.5047607421875	-2567.063720703125	940.7913818359376	-193.1896209716797	-2618.788818359375	1091.81494140625	-364.9079895019531	-2506.062255859375	771.7974853515625	-497.4352722167969	-2946.441162109375	443.7504272460938	-454.58837890625	-2579.330078125	789.7256469726562	-530.6300659179688	-2537.452880859375	673.4415283203125	-483.548583984375	-2132.553466796875	159.0491638183594	-222.3938598632812	-2859.63232421875	488.8630065917969	-490.2771606445312	-2614.69384765625	696.8134155273438	-509.1391906738281	-2409.843505859375	841.2882080078125	-213.8064727783203	-2991.739013671875	139.9181213378906	-399.6183166503906	-2478.376953125	814.178466796875	-181.9275360107422	-2374.52587890625	744.9927368164062	-218.1196136474609	-2448.203125	718.6270141601562	-192.5734558105469	-2648.472900390625	545.0531005859375	-477.3028869628906	-2352.222900390625	580.0619506835938	-240.1715850830078	-2821.253173828125	414.9192199707031	-481.0376892089844	-2914.124267578125	374.8071899414062	-477.0141296386719	-2311.2177734375	397.05029296875	-217.8463134765625	-3040.23193359375	188.3146362304688	-464.1241149902344	-2390.49609375	378.6548767089844	-232.3093109130859	-3091.45361328125	364.2793884277344	-395.2669067382812	-2285.34716796875	300.7323913574219	-231.8753051757812	-2359.962158203125	282.2745971679688	-252.5283966064453	-3027.240966796875	335.0845336914062	-470.7351379394531	-2278.978515625	162.0628814697266	-234.7607574462891	-2088.642578125	192.5225677490234	-295.4179992675781	-2323.7646484375	95.4728546142578	-274.64111328125	-2301.1025390625	74.528076171875	-307.083251953125	-2307.39208984375	74.43700408935547	-255.4363403320312	-3099.87109375	357.8717651367188	-446.1142883300781
